<?xml version="1.0" encoding="UTF-8" standalone="no"?>
<!DOCTYPE svg PUBLIC "-//W3C//DTD SVG 1.1//EN"
 "http://www.w3.org/Graphics/SVG/1.1/DTD/svg11.dtd">
<!-- Generated by graphviz version 14.1.5 (0)
 -->
<!-- Title: WeaverEngine Pages: 1 -->
<svg width="1761pt" height="332pt"
 viewBox="0.00 0.00 1761.00 332.00" xmlns="http://www.w3.org/2000/svg" xmlns:xlink="http://www.w3.org/1999/xlink">
<g id="graph0" class="graph" transform="scale(1 1) rotate(0) translate(4 328)">
<title>WeaverEngine</title>
<polygon fill="white" stroke="none" points="-4,4 -4,-328 1757,-328 1757,4 -4,4"/>
<!-- json_util -->
<g id="node1" class="node">
<title>json_util</title>
<polygon fill="lightgray" stroke="black" points="94.62,-324 31.38,-324 31.38,-288 94.62,-288 94.62,-324"/>
<text xml:space="preserve" text-anchor="middle" x="63" y="-300.95" font-family="Times,serif" font-size="14.00">json_util</text>
</g>
<!-- dkjson -->
<g id="node2" class="node">
<title>dkjson</title>
<polygon fill="lightgray" stroke="black" points="90,-252 36,-252 36,-216 90,-216 90,-252"/>
<text xml:space="preserve" text-anchor="middle" x="63" y="-228.95" font-family="Times,serif" font-size="14.00">dkjson</text>
</g>
<!-- json_util&#45;&gt;dkjson -->
<g id="edge1" class="edge">
<title>json_util&#45;&gt;dkjson</title>
<path fill="none" stroke="black" d="M63,-287.7C63,-280.41 63,-271.73 63,-263.54"/>
<polygon fill="black" stroke="black" points="66.5,-263.62 63,-253.62 59.5,-263.62 66.5,-263.62"/>
</g>
<!-- debug -->
<g id="node24" class="node">
<title>debug</title>
<polygon fill="lightgray" stroke="black" points="54,-180 0,-180 0,-144 54,-144 54,-180"/>
<text xml:space="preserve" text-anchor="middle" x="27" y="-156.95" font-family="Times,serif" font-size="14.00">debug</text>
</g>
<!-- dkjson&#45;&gt;debug -->
<g id="edge38" class="edge">
<title>dkjson&#45;&gt;debug</title>
<path fill="none" stroke="black" d="M54.1,-215.7C50.13,-207.98 45.37,-198.71 40.94,-190.11"/>
<polygon fill="black" stroke="black" points="44.17,-188.74 36.49,-181.45 37.95,-191.94 44.17,-188.74"/>
</g>
<!-- lpeg -->
<g id="node25" class="node">
<title>lpeg</title>
<polygon fill="lightgray" stroke="black" points="126,-180 72,-180 72,-144 126,-144 126,-180"/>
<text xml:space="preserve" text-anchor="middle" x="99" y="-156.95" font-family="Times,serif" font-size="14.00">lpeg</text>
</g>
<!-- dkjson&#45;&gt;lpeg -->
<g id="edge39" class="edge">
<title>dkjson&#45;&gt;lpeg</title>
<path fill="none" stroke="black" d="M71.9,-215.7C75.87,-207.98 80.63,-198.71 85.06,-190.11"/>
<polygon fill="black" stroke="black" points="88.05,-191.94 89.51,-181.45 81.83,-188.74 88.05,-191.94"/>
</g>
<!-- game_state -->
<g id="node3" class="node">
<title>game_state</title>
<polygon fill="lightgray" stroke="black" points="647.75,-180 570.25,-180 570.25,-144 647.75,-144 647.75,-180"/>
<text xml:space="preserve" text-anchor="middle" x="609" y="-156.95" font-family="Times,serif" font-size="14.00">game_state</text>
</g>
<!-- ffi -->
<g id="node4" class="node">
<title>ffi</title>
<polygon fill="lightgray" stroke="black" points="1233,-36 1179,-36 1179,0 1233,0 1233,-36"/>
<text xml:space="preserve" text-anchor="middle" x="1206" y="-12.95" font-family="Times,serif" font-size="14.00">ffi</text>
</g>
<!-- game_state&#45;&gt;ffi -->
<g id="edge2" class="edge">
<title>game_state&#45;&gt;ffi</title>
<path fill="none" stroke="black" d="M609.9,-143.77C611.99,-123.14 618.81,-89.21 641,-72 682.49,-39.83 1046.58,-24.49 1167.3,-20.25"/>
<polygon fill="black" stroke="black" points="1167.14,-23.76 1177.02,-19.92 1166.9,-16.77 1167.14,-23.76"/>
</g>
<!-- bit -->
<g id="node5" class="node">
<title>bit</title>
<polygon fill="lightgray" stroke="black" points="1008,-108 954,-108 954,-72 1008,-72 1008,-108"/>
<text xml:space="preserve" text-anchor="middle" x="981" y="-84.95" font-family="Times,serif" font-size="14.00">bit</text>
</g>
<!-- game_state&#45;&gt;bit -->
<g id="edge3" class="edge">
<title>game_state&#45;&gt;bit</title>
<path fill="none" stroke="black" d="M648.11,-153.64C719.85,-140.14 871.64,-111.58 942.74,-98.2"/>
<polygon fill="black" stroke="black" points="943.17,-101.68 952.35,-96.39 941.88,-94.8 943.17,-101.68"/>
</g>
<!-- network -->
<g id="node6" class="node">
<title>network</title>
<polygon fill="lightgray" stroke="black" points="426.12,-108 365.88,-108 365.88,-72 426.12,-72 426.12,-108"/>
<text xml:space="preserve" text-anchor="middle" x="396" y="-84.95" font-family="Times,serif" font-size="14.00">network</text>
</g>
<!-- game_state&#45;&gt;network -->
<g id="edge4" class="edge">
<title>game_state&#45;&gt;network</title>
<path fill="none" stroke="black" d="M570,-147.08C566.96,-146.03 563.93,-144.99 561,-144 519,-129.82 470.69,-114.41 437.24,-103.87"/>
<polygon fill="black" stroke="black" points="438.53,-100.61 427.94,-100.95 436.43,-107.29 438.53,-100.61"/>
</g>
<!-- config_sim -->
<g id="node7" class="node">
<title>config_sim</title>
<polygon fill="lightgray" stroke="black" points="727.75,-108 650.25,-108 650.25,-72 727.75,-72 727.75,-108"/>
<text xml:space="preserve" text-anchor="middle" x="689" y="-84.95" font-family="Times,serif" font-size="14.00">config_sim</text>
</g>
<!-- game_state&#45;&gt;config_sim -->
<g id="edge5" class="edge">
<title>game_state&#45;&gt;config_sim</title>
<path fill="none" stroke="black" d="M628.78,-143.7C638.39,-135.28 650.12,-125.02 660.67,-115.79"/>
<polygon fill="black" stroke="black" points="662.81,-118.56 668.04,-109.34 658.21,-113.29 662.81,-118.56"/>
</g>
<!-- config_net -->
<g id="node8" class="node">
<title>config_net</title>
<polygon fill="lightgray" stroke="black" points="555.88,-108 482.12,-108 482.12,-72 555.88,-72 555.88,-108"/>
<text xml:space="preserve" text-anchor="middle" x="519" y="-84.95" font-family="Times,serif" font-size="14.00">config_net</text>
</g>
<!-- game_state&#45;&gt;config_net -->
<g id="edge6" class="edge">
<title>game_state&#45;&gt;config_net</title>
<path fill="none" stroke="black" d="M586.75,-143.7C575.72,-135.11 562.21,-124.61 550.16,-115.24"/>
<polygon fill="black" stroke="black" points="552.54,-112.65 542.5,-109.28 548.24,-118.18 552.54,-112.65"/>
</g>
<!-- fixed_math -->
<g id="node9" class="node">
<title>fixed_math</title>
<polygon fill="lightgray" stroke="black" points="880.12,-108 801.88,-108 801.88,-72 880.12,-72 880.12,-108"/>
<text xml:space="preserve" text-anchor="middle" x="841" y="-84.95" font-family="Times,serif" font-size="14.00">fixed_math</text>
</g>
<!-- game_state&#45;&gt;fixed_math -->
<g id="edge7" class="edge">
<title>game_state&#45;&gt;fixed_math</title>
<path fill="none" stroke="black" d="M648.09,-149.2C687.33,-137.37 747.94,-119.08 790.73,-106.17"/>
<polygon fill="black" stroke="black" points="791.73,-109.52 800.3,-103.28 789.71,-102.82 791.73,-109.52"/>
</g>
<!-- network&#45;&gt;ffi -->
<g id="edge10" class="edge">
<title>network&#45;&gt;ffi</title>
<path fill="none" stroke="black" d="M426.41,-75.91C430.9,-74.37 435.52,-73 440,-72 580.99,-40.64 1032.19,-24.39 1167.37,-20.15"/>
<polygon fill="black" stroke="black" points="1167.33,-23.65 1177.22,-19.84 1167.11,-16.65 1167.33,-23.65"/>
</g>
<!-- renderer -->
<g id="node10" class="node">
<title>renderer</title>
<polygon fill="lightgray" stroke="black" points="1358.5,-252 1297.5,-252 1297.5,-216 1358.5,-216 1358.5,-252"/>
<text xml:space="preserve" text-anchor="middle" x="1328" y="-228.95" font-family="Times,serif" font-size="14.00">renderer</text>
</g>
<!-- renderer&#45;&gt;ffi -->
<g id="edge8" class="edge">
<title>renderer&#45;&gt;ffi</title>
<path fill="none" stroke="black" d="M1318.22,-215.85C1297.07,-178.75 1246.94,-90.81 1221.45,-46.1"/>
<polygon fill="black" stroke="black" points="1224.57,-44.5 1216.57,-37.55 1218.49,-47.97 1224.57,-44.5"/>
</g>
<!-- registry_vk -->
<g id="node11" class="node">
<title>registry_vk</title>
<polygon fill="lightgray" stroke="black" points="1425.75,-180 1348.25,-180 1348.25,-144 1425.75,-144 1425.75,-180"/>
<text xml:space="preserve" text-anchor="middle" x="1387" y="-156.95" font-family="Times,serif" font-size="14.00">registry_vk</text>
</g>
<!-- renderer&#45;&gt;registry_vk -->
<g id="edge9" class="edge">
<title>renderer&#45;&gt;registry_vk</title>
<path fill="none" stroke="black" d="M1342.58,-215.7C1349.44,-207.56 1357.76,-197.69 1365.34,-188.7"/>
<polygon fill="black" stroke="black" points="1367.84,-191.16 1371.61,-181.26 1362.49,-186.65 1367.84,-191.16"/>
</g>
<!-- registry_vk&#45;&gt;ffi -->
<g id="edge18" class="edge">
<title>registry_vk&#45;&gt;ffi</title>
<path fill="none" stroke="black" d="M1380.62,-143.69C1372.53,-123.92 1356.85,-91.77 1334,-72 1308.18,-49.67 1271.64,-35.8 1244.21,-27.89"/>
<polygon fill="black" stroke="black" points="1245.47,-24.6 1234.9,-25.34 1243.62,-31.36 1245.47,-24.6"/>
</g>
<!-- vulkan_headers -->
<g id="node15" class="node">
<title>vulkan_headers</title>
<polygon fill="lightgray" stroke="black" points="1540.38,-108 1439.62,-108 1439.62,-72 1540.38,-72 1540.38,-108"/>
<text xml:space="preserve" text-anchor="middle" x="1490" y="-84.95" font-family="Times,serif" font-size="14.00">vulkan_headers</text>
</g>
<!-- registry_vk&#45;&gt;vulkan_headers -->
<g id="edge19" class="edge">
<title>registry_vk&#45;&gt;vulkan_headers</title>
<path fill="none" stroke="black" d="M1412.73,-143.52C1425.6,-134.76 1441.38,-124.04 1455.31,-114.58"/>
<polygon fill="black" stroke="black" points="1457.05,-117.63 1463.35,-109.11 1453.11,-111.84 1457.05,-117.63"/>
</g>
<!-- pipeline_manifest -->
<g id="node12" class="node">
<title>pipeline_manifest</title>
<polygon fill="lightgray" stroke="black" points="931.75,-180 818.25,-180 818.25,-144 931.75,-144 931.75,-180"/>
<text xml:space="preserve" text-anchor="middle" x="875" y="-156.95" font-family="Times,serif" font-size="14.00">pipeline_manifest</text>
</g>
<!-- net_pump -->
<g id="node13" class="node">
<title>net_pump</title>
<polygon fill="lightgray" stroke="black" points="552.38,-180 481.62,-180 481.62,-144 552.38,-144 552.38,-180"/>
<text xml:space="preserve" text-anchor="middle" x="517" y="-156.95" font-family="Times,serif" font-size="14.00">net_pump</text>
</g>
<!-- net_pump&#45;&gt;ffi -->
<g id="edge11" class="edge">
<title>net_pump&#45;&gt;ffi</title>
<path fill="none" stroke="black" d="M533.35,-143.54C555.77,-120.04 595.39,-80.22 614,-72 713.71,-27.97 1052.05,-20.51 1167.23,-19.26"/>
<polygon fill="black" stroke="black" points="1167.12,-22.76 1177.09,-19.16 1167.06,-15.76 1167.12,-22.76"/>
</g>
<!-- net_pump&#45;&gt;bit -->
<g id="edge12" class="edge">
<title>net_pump&#45;&gt;bit</title>
<path fill="none" stroke="black" d="M552.77,-146.31C555.53,-145.44 558.29,-144.66 561,-144 703.48,-109.28 743.91,-129.34 889,-108 906.76,-105.39 926.33,-101.86 942.83,-98.7"/>
<polygon fill="black" stroke="black" points="943.08,-102.22 952.23,-96.87 941.74,-95.35 943.08,-102.22"/>
</g>
<!-- net_pump&#45;&gt;network -->
<g id="edge14" class="edge">
<title>net_pump&#45;&gt;network</title>
<path fill="none" stroke="black" d="M486.78,-143.52C471.21,-134.51 452.05,-123.42 435.34,-113.76"/>
<polygon fill="black" stroke="black" points="437.55,-111 427.15,-109.02 434.05,-117.06 437.55,-111"/>
</g>
<!-- net_pump&#45;&gt;config_sim -->
<g id="edge13" class="edge">
<title>net_pump&#45;&gt;config_sim</title>
<path fill="none" stroke="black" d="M552.64,-146.5C577.77,-136.27 611.75,-122.44 639.51,-111.14"/>
<polygon fill="black" stroke="black" points="640.46,-114.53 648.41,-107.52 637.83,-108.05 640.46,-114.53"/>
</g>
<!-- net_pump&#45;&gt;config_net -->
<g id="edge15" class="edge">
<title>net_pump&#45;&gt;config_net</title>
<path fill="none" stroke="black" d="M517.49,-143.7C517.7,-136.41 517.95,-127.73 518.18,-119.54"/>
<polygon fill="black" stroke="black" points="521.68,-119.71 518.47,-109.62 514.68,-119.51 521.68,-119.71"/>
</g>
<!-- compute_pipeline -->
<g id="node14" class="node">
<title>compute_pipeline</title>
<polygon fill="lightgray" stroke="black" points="1528.75,-252 1415.25,-252 1415.25,-216 1528.75,-216 1528.75,-252"/>
<text xml:space="preserve" text-anchor="middle" x="1472" y="-228.95" font-family="Times,serif" font-size="14.00">compute_pipeline</text>
</g>
<!-- compute_pipeline&#45;&gt;ffi -->
<g id="edge16" class="edge">
<title>compute_pipeline&#45;&gt;ffi</title>
<path fill="none" stroke="black" d="M1467.04,-215.59C1461.21,-196.88 1450.34,-166.76 1435,-144 1409.53,-106.21 1400.78,-95.94 1362,-72 1325.09,-49.22 1277.18,-34.83 1244.25,-26.89"/>
<polygon fill="black" stroke="black" points="1245.27,-23.53 1234.74,-24.68 1243.69,-30.35 1245.27,-23.53"/>
</g>
<!-- compute_pipeline&#45;&gt;registry_vk -->
<g id="edge17" class="edge">
<title>compute_pipeline&#45;&gt;registry_vk</title>
<path fill="none" stroke="black" d="M1450.99,-215.7C1440.67,-207.2 1428.06,-196.81 1416.77,-187.51"/>
<polygon fill="black" stroke="black" points="1419.18,-184.96 1409.23,-181.31 1414.73,-190.37 1419.18,-184.96"/>
</g>
<!-- vulkan_headers&#45;&gt;ffi -->
<g id="edge71" class="edge">
<title>vulkan_headers&#45;&gt;ffi</title>
<path fill="none" stroke="black" d="M1439.37,-75.44C1434.85,-74.26 1430.35,-73.1 1426,-72 1362.55,-55.93 1288.5,-38.33 1244.53,-28"/>
<polygon fill="black" stroke="black" points="1245.5,-24.63 1234.96,-25.75 1243.9,-31.44 1245.5,-24.63"/>
</g>
<!-- vulkan_core -->
<g id="node16" class="node">
<title>vulkan_core</title>
<polygon fill="lightgray" stroke="black" points="1629.38,-252 1546.62,-252 1546.62,-216 1629.38,-216 1629.38,-252"/>
<text xml:space="preserve" text-anchor="middle" x="1588" y="-228.95" font-family="Times,serif" font-size="14.00">vulkan_core</text>
</g>
<!-- vulkan_core&#45;&gt;ffi -->
<g id="edge20" class="edge">
<title>vulkan_core&#45;&gt;ffi</title>
<path fill="none" stroke="black" d="M1589.49,-215.63C1591.29,-182.37 1589.97,-109.66 1549,-72 1505.13,-31.68 1324.33,-22.03 1244.35,-19.72"/>
<polygon fill="black" stroke="black" points="1244.91,-16.23 1234.83,-19.47 1244.73,-23.23 1244.91,-16.23"/>
</g>
<!-- vulkan_core&#45;&gt;bit -->
<g id="edge21" class="edge">
<title>vulkan_core&#45;&gt;bit</title>
<path fill="none" stroke="black" d="M1565.09,-215.57C1536.37,-194.74 1484.85,-160.61 1435,-144 1287.48,-94.86 1099.82,-89.9 1019.88,-90.27"/>
<polygon fill="black" stroke="black" points="1019.93,-86.77 1009.96,-90.35 1019.98,-93.77 1019.93,-86.77"/>
</g>
<!-- vulkan_core&#45;&gt;registry_vk -->
<g id="edge23" class="edge">
<title>vulkan_core&#45;&gt;registry_vk</title>
<path fill="none" stroke="black" d="M1546.35,-218.5C1514.5,-207.4 1470.47,-192.07 1436.76,-180.33"/>
<polygon fill="black" stroke="black" points="1438.23,-177.13 1427.63,-177.15 1435.93,-183.75 1438.23,-177.13"/>
</g>
<!-- vulkan_core&#45;&gt;vulkan_headers -->
<g id="edge22" class="edge">
<title>vulkan_core&#45;&gt;vulkan_headers</title>
<path fill="none" stroke="black" d="M1575.98,-215.59C1559.07,-191.08 1528.09,-146.19 1508.3,-117.52"/>
<polygon fill="black" stroke="black" points="1511.23,-115.6 1502.67,-109.36 1505.47,-119.57 1511.23,-115.6"/>
</g>
<!-- config_gfx -->
<g id="node17" class="node">
<title>config_gfx</title>
<polygon fill="lightgray" stroke="black" points="1139.62,-180 1064.38,-180 1064.38,-144 1139.62,-144 1139.62,-180"/>
<text xml:space="preserve" text-anchor="middle" x="1102" y="-156.95" font-family="Times,serif" font-size="14.00">config_gfx</text>
</g>
<!-- vulkan_core&#45;&gt;config_gfx -->
<g id="edge24" class="edge">
<title>vulkan_core&#45;&gt;config_gfx</title>
<path fill="none" stroke="black" d="M1546.17,-218.08C1543.42,-217.31 1540.68,-216.61 1538,-216 1400.01,-184.51 1232.9,-170.82 1151.45,-165.67"/>
<polygon fill="black" stroke="black" points="1151.78,-162.19 1141.58,-165.07 1151.35,-169.18 1151.78,-162.19"/>
</g>
<!-- descriptors -->
<g id="node18" class="node">
<title>descriptors</title>
<polygon fill="lightgray" stroke="black" points="1148.62,-252 1073.38,-252 1073.38,-216 1148.62,-216 1148.62,-252"/>
<text xml:space="preserve" text-anchor="middle" x="1111" y="-228.95" font-family="Times,serif" font-size="14.00">descriptors</text>
</g>
<!-- descriptors&#45;&gt;ffi -->
<g id="edge25" class="edge">
<title>descriptors&#45;&gt;ffi</title>
<path fill="none" stroke="black" d="M1134.34,-215.69C1145.46,-206.29 1158.04,-193.78 1166,-180 1190.37,-137.8 1200,-81.04 1203.73,-47.41"/>
<polygon fill="black" stroke="black" points="1207.19,-47.94 1204.7,-37.64 1200.23,-47.25 1207.19,-47.94"/>
</g>
<!-- descriptors&#45;&gt;bit -->
<g id="edge26" class="edge">
<title>descriptors&#45;&gt;bit</title>
<path fill="none" stroke="black" d="M1128.2,-215.73C1144.87,-196.87 1165.39,-166.36 1149,-144 1119.52,-103.79 1059.46,-93.3 1019.72,-90.98"/>
<polygon fill="black" stroke="black" points="1019.99,-87.49 1009.86,-90.57 1019.7,-94.49 1019.99,-87.49"/>
</g>
<!-- descriptors&#45;&gt;registry_vk -->
<g id="edge27" class="edge">
<title>descriptors&#45;&gt;registry_vk</title>
<path fill="none" stroke="black" d="M1149.09,-218.79C1152.09,-217.8 1155.09,-216.86 1158,-216 1218.92,-198 1290.43,-182.3 1337.12,-172.75"/>
<polygon fill="black" stroke="black" points="1337.55,-176.23 1346.66,-170.82 1336.16,-169.37 1337.55,-176.23"/>
</g>
<!-- descriptors&#45;&gt;config_gfx -->
<g id="edge28" class="edge">
<title>descriptors&#45;&gt;config_gfx</title>
<path fill="none" stroke="black" d="M1108.78,-215.7C1107.83,-208.32 1106.7,-199.52 1105.63,-191.25"/>
<polygon fill="black" stroke="black" points="1109.14,-191.08 1104.39,-181.61 1102.2,-191.97 1109.14,-191.08"/>
</g>
<!-- swapchain -->
<g id="node19" class="node">
<title>swapchain</title>
<polygon fill="lightgray" stroke="black" points="1720.5,-252 1647.5,-252 1647.5,-216 1720.5,-216 1720.5,-252"/>
<text xml:space="preserve" text-anchor="middle" x="1684" y="-228.95" font-family="Times,serif" font-size="14.00">swapchain</text>
</g>
<!-- swapchain&#45;&gt;ffi -->
<g id="edge29" class="edge">
<title>swapchain&#45;&gt;ffi</title>
<path fill="none" stroke="black" d="M1669.9,-215.65C1661.78,-205.45 1651.53,-192.2 1643,-180 1610.5,-133.51 1622.58,-102.88 1575,-72 1521,-36.94 1328.04,-24.36 1244.74,-20.5"/>
<polygon fill="black" stroke="black" points="1244.94,-17.01 1234.79,-20.06 1244.63,-24 1244.94,-17.01"/>
</g>
<!-- swapchain&#45;&gt;registry_vk -->
<g id="edge30" class="edge">
<title>swapchain&#45;&gt;registry_vk</title>
<path fill="none" stroke="black" d="M1647.25,-218.88C1644.14,-217.85 1641.03,-216.87 1638,-216 1569.38,-196.19 1488.23,-180.4 1437.18,-171.37"/>
<polygon fill="black" stroke="black" points="1438.08,-167.97 1427.62,-169.7 1436.87,-174.87 1438.08,-167.97"/>
</g>
<!-- graphics_pipeline -->
<g id="node20" class="node">
<title>graphics_pipeline</title>
<polygon fill="lightgray" stroke="black" points="1279,-252 1167,-252 1167,-216 1279,-216 1279,-252"/>
<text xml:space="preserve" text-anchor="middle" x="1223" y="-228.95" font-family="Times,serif" font-size="14.00">graphics_pipeline</text>
</g>
<!-- graphics_pipeline&#45;&gt;ffi -->
<g id="edge31" class="edge">
<title>graphics_pipeline&#45;&gt;ffi</title>
<path fill="none" stroke="black" d="M1224.04,-215.5C1225.49,-185.82 1227.21,-123.78 1220,-72 1218.87,-63.89 1216.92,-55.25 1214.83,-47.35"/>
<polygon fill="black" stroke="black" points="1218.25,-46.57 1212.15,-37.91 1211.51,-48.48 1218.25,-46.57"/>
</g>
<!-- graphics_pipeline&#45;&gt;bit -->
<g id="edge32" class="edge">
<title>graphics_pipeline&#45;&gt;bit</title>
<path fill="none" stroke="black" d="M1216.34,-215.57C1207.75,-195.38 1190.87,-162.52 1166,-144 1122.56,-111.65 1059.95,-99.02 1019.87,-94.1"/>
<polygon fill="black" stroke="black" points="1020.28,-90.63 1009.95,-93 1019.51,-97.59 1020.28,-90.63"/>
</g>
<!-- graphics_pipeline&#45;&gt;registry_vk -->
<g id="edge33" class="edge">
<title>graphics_pipeline&#45;&gt;registry_vk</title>
<path fill="none" stroke="black" d="M1263.96,-215.52C1286.26,-206 1314.01,-194.16 1337.51,-184.12"/>
<polygon fill="black" stroke="black" points="1338.76,-187.4 1346.58,-180.25 1336.01,-180.96 1338.76,-187.4"/>
</g>
<!-- camera -->
<g id="node21" class="node">
<title>camera</title>
<polygon fill="lightgray" stroke="black" points="1707.88,-180 1652.12,-180 1652.12,-144 1707.88,-144 1707.88,-180"/>
<text xml:space="preserve" text-anchor="middle" x="1680" y="-156.95" font-family="Times,serif" font-size="14.00">camera</text>
</g>
<!-- camera&#45;&gt;ffi -->
<g id="edge34" class="edge">
<title>camera&#45;&gt;ffi</title>
<path fill="none" stroke="black" d="M1673.52,-143.61C1664.78,-122.82 1647.12,-88.72 1620,-72 1557.57,-33.51 1335.05,-22.75 1244.62,-19.94"/>
<polygon fill="black" stroke="black" points="1244.88,-16.44 1234.78,-19.65 1244.67,-23.44 1244.88,-16.44"/>
</g>
<!-- camera&#45;&gt;bit -->
<g id="edge36" class="edge">
<title>camera&#45;&gt;bit</title>
<path fill="none" stroke="black" d="M1651.73,-158.17C1542.24,-147.2 1145.92,-107.52 1019.82,-94.89"/>
<polygon fill="black" stroke="black" points="1020.28,-91.42 1009.98,-93.9 1019.58,-98.38 1020.28,-91.42"/>
</g>
<!-- math -->
<g id="node22" class="node">
<title>math</title>
<polygon fill="lightgray" stroke="black" points="1753,-36 1699,-36 1699,0 1753,0 1753,-36"/>
<text xml:space="preserve" text-anchor="middle" x="1726" y="-12.95" font-family="Times,serif" font-size="14.00">math</text>
</g>
<!-- camera&#45;&gt;math -->
<g id="edge35" class="edge">
<title>camera&#45;&gt;math</title>
<path fill="none" stroke="black" d="M1705.67,-143.72C1716.92,-134.58 1728.93,-122.28 1735,-108 1743.12,-88.89 1740.31,-65.46 1735.76,-47.44"/>
<polygon fill="black" stroke="black" points="1739.16,-46.58 1733.04,-37.93 1732.43,-48.51 1739.16,-46.58"/>
</g>
<!-- vmath -->
<g id="node23" class="node">
<title>vmath</title>
<polygon fill="lightgray" stroke="black" points="1726,-108 1672,-108 1672,-72 1726,-72 1726,-108"/>
<text xml:space="preserve" text-anchor="middle" x="1699" y="-84.95" font-family="Times,serif" font-size="14.00">vmath</text>
</g>
<!-- camera&#45;&gt;vmath -->
<g id="edge37" class="edge">
<title>camera&#45;&gt;vmath</title>
<path fill="none" stroke="black" d="M1684.7,-143.7C1686.72,-136.24 1689.14,-127.32 1691.41,-118.97"/>
<polygon fill="black" stroke="black" points="1694.72,-120.13 1693.96,-109.57 1687.96,-118.3 1694.72,-120.13"/>
</g>
<!-- vmath&#45;&gt;ffi -->
<g id="edge72" class="edge">
<title>vmath&#45;&gt;ffi</title>
<path fill="none" stroke="black" d="M1671.57,-76.41C1667.1,-74.72 1662.47,-73.17 1658,-72 1508.55,-33.06 1323.81,-22.69 1244.8,-19.96"/>
<polygon fill="black" stroke="black" points="1245.11,-16.47 1235,-19.64 1244.88,-23.46 1245.11,-16.47"/>
</g>
<!-- vmath&#45;&gt;math -->
<g id="edge73" class="edge">
<title>vmath&#45;&gt;math</title>
<path fill="none" stroke="black" d="M1705.67,-71.7C1708.58,-64.15 1712.07,-55.12 1715.32,-46.68"/>
<polygon fill="black" stroke="black" points="1718.52,-48.11 1718.86,-37.52 1711.99,-45.59 1718.52,-48.11"/>
</g>
<!-- structs -->
<g id="node26" class="node">
<title>structs</title>
<polygon fill="lightgray" stroke="black" points="388,-180 334,-180 334,-144 388,-144 388,-180"/>
<text xml:space="preserve" text-anchor="middle" x="361" y="-156.95" font-family="Times,serif" font-size="14.00">structs</text>
</g>
<!-- structs&#45;&gt;ffi -->
<g id="edge40" class="edge">
<title>structs&#45;&gt;ffi</title>
<path fill="none" stroke="black" d="M353.73,-143.75C346.58,-123.74 339.1,-91.05 357,-72 385.12,-42.07 1005.33,-24.14 1167.49,-19.95"/>
<polygon fill="black" stroke="black" points="1167.37,-23.46 1177.27,-19.7 1167.19,-16.46 1167.37,-23.46"/>
</g>
<!-- structs&#45;&gt;config_net -->
<g id="edge41" class="edge">
<title>structs&#45;&gt;config_net</title>
<path fill="none" stroke="black" d="M388.16,-148.97C410.98,-138.86 444.14,-124.17 471.36,-112.1"/>
<polygon fill="black" stroke="black" points="472.74,-115.32 480.47,-108.07 469.91,-108.92 472.74,-115.32"/>
</g>
<!-- sequence -->
<g id="node27" class="node">
<title>sequence</title>
<polygon fill="lightgray" stroke="black" points="1199.75,-324 1134.25,-324 1134.25,-288 1199.75,-288 1199.75,-324"/>
<text xml:space="preserve" text-anchor="middle" x="1167" y="-300.95" font-family="Times,serif" font-size="14.00">sequence</text>
</g>
<!-- sequence&#45;&gt;ffi -->
<g id="edge42" class="edge">
<title>sequence&#45;&gt;ffi</title>
<path fill="none" stroke="black" d="M1133.86,-304.12C992.42,-300.2 443.38,-283.08 373,-252 330.73,-233.33 316.12,-222.51 298,-180 291.73,-165.28 297.22,-159.98 298,-144 299.56,-111.89 281.84,-94.3 305,-72 336.51,-41.67 998.44,-23.93 1167.14,-19.89"/>
<polygon fill="black" stroke="black" points="1167.22,-23.39 1177.13,-19.65 1167.05,-16.39 1167.22,-23.39"/>
</g>
<!-- sequence&#45;&gt;config_sim -->
<g id="edge44" class="edge">
<title>sequence&#45;&gt;config_sim</title>
<path fill="none" stroke="black" d="M1133.9,-303.88C1029.64,-300.02 713.12,-285.59 683,-252 650.57,-215.82 664.91,-154.62 677.48,-119"/>
<polygon fill="black" stroke="black" points="680.69,-120.41 680.91,-109.82 674.13,-117.96 680.69,-120.41"/>
</g>
<!-- sequence&#45;&gt;renderer -->
<g id="edge55" class="edge">
<title>sequence&#45;&gt;renderer</title>
<path fill="none" stroke="black" d="M1199.97,-290.67C1225.15,-279.72 1259.99,-264.57 1286.97,-252.84"/>
<polygon fill="black" stroke="black" points="1288.09,-256.17 1295.87,-248.97 1285.3,-249.75 1288.09,-256.17"/>
</g>
<!-- sequence&#45;&gt;registry_vk -->
<g id="edge45" class="edge">
<title>sequence&#45;&gt;registry_vk</title>
<path fill="none" stroke="black" d="M1200.12,-300.43C1250.79,-292.77 1344.08,-275.81 1367,-252 1382.37,-236.03 1386.91,-210.92 1387.87,-191.44"/>
<polygon fill="black" stroke="black" points="1391.37,-191.74 1388.05,-181.68 1384.37,-191.62 1391.37,-191.74"/>
</g>
<!-- sequence&#45;&gt;pipeline_manifest -->
<g id="edge46" class="edge">
<title>sequence&#45;&gt;pipeline_manifest</title>
<path fill="none" stroke="black" d="M1133.89,-301.58C1074.11,-294.82 951.3,-278.12 918,-252 898.81,-236.95 887.68,-211.18 881.57,-191.23"/>
<polygon fill="black" stroke="black" points="884.98,-190.44 878.93,-181.75 878.24,-192.32 884.98,-190.44"/>
</g>
<!-- sequence&#45;&gt;compute_pipeline -->
<g id="edge53" class="edge">
<title>sequence&#45;&gt;compute_pipeline</title>
<path fill="none" stroke="black" d="M1199.97,-297.67C1245.3,-287.55 1329.4,-268.68 1401,-252 1402,-251.77 1403.01,-251.53 1404.02,-251.3"/>
<polygon fill="black" stroke="black" points="1404.64,-254.74 1413.57,-249.05 1403.04,-247.93 1404.64,-254.74"/>
</g>
<!-- sequence&#45;&gt;vulkan_core -->
<g id="edge47" class="edge">
<title>sequence&#45;&gt;vulkan_core</title>
<path fill="none" stroke="black" d="M1200.24,-301.86C1264.57,-295.82 1409.56,-280.57 1529,-252 1531.11,-251.5 1533.25,-250.94 1535.41,-250.35"/>
<polygon fill="black" stroke="black" points="1536.26,-253.75 1544.86,-247.56 1534.27,-247.03 1536.26,-253.75"/>
</g>
<!-- sequence&#45;&gt;vulkan_core -->
<g id="edge48" class="edge">
<title>sequence&#45;&gt;vulkan_core</title>
<path fill="none" stroke="black" d="M1200.03,-302.77C1264.66,-297.61 1411.53,-283.07 1535.14,-254.78"/>
<polygon fill="black" stroke="black" points="1535.85,-258.2 1544.79,-252.52 1534.25,-251.39 1535.85,-258.2"/>
</g>
<!-- sequence&#45;&gt;config_gfx -->
<g id="edge43" class="edge">
<title>sequence&#45;&gt;config_gfx</title>
<path fill="none" stroke="black" d="M1133.77,-297.64C1109.79,-290.4 1079.08,-276.72 1064,-252 1051.85,-232.09 1064.05,-207.61 1077.76,-189.36"/>
<polygon fill="black" stroke="black" points="1080.45,-191.61 1084,-181.63 1075,-187.21 1080.45,-191.61"/>
</g>
<!-- sequence&#45;&gt;descriptors -->
<g id="edge51" class="edge">
<title>sequence&#45;&gt;descriptors</title>
<path fill="none" stroke="black" d="M1153.16,-287.7C1146.71,-279.64 1138.92,-269.89 1131.79,-260.98"/>
<polygon fill="black" stroke="black" points="1134.61,-258.91 1125.63,-253.29 1129.14,-263.28 1134.61,-258.91"/>
</g>
<!-- sequence&#45;&gt;swapchain -->
<g id="edge50" class="edge">
<title>sequence&#45;&gt;swapchain</title>
<path fill="none" stroke="black" d="M1200.02,-304.02C1275.84,-301.2 1468.17,-290.75 1636.06,-252.1"/>
<polygon fill="black" stroke="black" points="1636.67,-255.56 1645.61,-249.86 1635.07,-248.74 1636.67,-255.56"/>
</g>
<!-- sequence&#45;&gt;graphics_pipeline -->
<g id="edge54" class="edge">
<title>sequence&#45;&gt;graphics_pipeline</title>
<path fill="none" stroke="black" d="M1180.84,-287.7C1187.29,-279.64 1195.08,-269.89 1202.21,-260.98"/>
<polygon fill="black" stroke="black" points="1204.86,-263.28 1208.37,-253.29 1199.39,-258.91 1204.86,-263.28"/>
</g>
<!-- memory -->
<g id="node28" class="node">
<title>memory</title>
<polygon fill="lightgray" stroke="black" points="871.25,-252 808.75,-252 808.75,-216 871.25,-216 871.25,-252"/>
<text xml:space="preserve" text-anchor="middle" x="840" y="-228.95" font-family="Times,serif" font-size="14.00">memory</text>
</g>
<!-- sequence&#45;&gt;memory -->
<g id="edge49" class="edge">
<title>sequence&#45;&gt;memory</title>
<path fill="none" stroke="black" d="M1134.15,-301.45C1081.58,-294.82 976.05,-278.97 882.65,-253.75"/>
<polygon fill="black" stroke="black" points="883.64,-250.39 873.07,-251.11 881.78,-257.14 883.64,-250.39"/>
</g>
<!-- sequence&#45;&gt;memory -->
<g id="edge52" class="edge">
<title>sequence&#45;&gt;memory</title>
<path fill="none" stroke="black" d="M1134.17,-299.91C1082.36,-292.22 979.38,-275.95 894,-252 890.27,-250.95 886.41,-249.73 882.54,-248.42"/>
<polygon fill="black" stroke="black" points="883.73,-245.13 873.13,-245.11 881.41,-251.73 883.73,-245.13"/>
</g>
<!-- memory&#45;&gt;ffi -->
<g id="edge56" class="edge">
<title>memory&#45;&gt;ffi</title>
<path fill="none" stroke="black" d="M808.52,-218.91C805.34,-217.8 802.13,-216.81 799,-216 728.41,-197.86 521.63,-234.29 473,-180 440.98,-144.24 440.31,-107.14 473,-72 520.55,-20.89 1022.48,-18.43 1167.17,-18.8"/>
<polygon fill="black" stroke="black" points="1166.98,-22.29 1176.99,-18.83 1167.01,-15.29 1166.98,-22.29"/>
</g>
<!-- memory&#45;&gt;bit -->
<g id="edge57" class="edge">
<title>memory&#45;&gt;bit</title>
<path fill="none" stroke="black" d="M825.22,-215.84C810.69,-196.79 792.87,-165.85 809,-144 824.92,-122.44 896.75,-105.97 942.41,-97.46"/>
<polygon fill="black" stroke="black" points="942.97,-100.91 952.19,-95.68 941.73,-94.02 942.97,-100.91"/>
</g>
<!-- memory&#45;&gt;registry_vk -->
<g id="edge58" class="edge">
<title>memory&#45;&gt;registry_vk</title>
<path fill="none" stroke="black" d="M871.74,-225.31C885.84,-222.1 902.68,-218.53 918,-216 1069.5,-191 1250.5,-174.2 1336.64,-166.99"/>
<polygon fill="black" stroke="black" points="1336.72,-170.5 1346.39,-166.18 1336.14,-163.52 1336.72,-170.5"/>
</g>
<!-- fsm_core -->
<g id="node29" class="node">
<title>fsm_core</title>
<polygon fill="lightgray" stroke="black" points="449.5,-252 382.5,-252 382.5,-216 449.5,-216 449.5,-252"/>
<text xml:space="preserve" text-anchor="middle" x="416" y="-228.95" font-family="Times,serif" font-size="14.00">fsm_core</text>
</g>
<!-- fsm_core&#45;&gt;game_state -->
<g id="edge60" class="edge">
<title>fsm_core&#45;&gt;game_state</title>
<path fill="none" stroke="black" d="M449.62,-220.81C479.83,-209.85 524.6,-193.61 559.01,-181.13"/>
<polygon fill="black" stroke="black" points="560.15,-184.44 568.36,-177.74 557.77,-177.86 560.15,-184.44"/>
</g>
<!-- fsm_core&#45;&gt;ffi -->
<g id="edge62" class="edge">
<title>fsm_core&#45;&gt;ffi</title>
<path fill="none" stroke="black" d="M382.41,-225.15C359.03,-217.74 329.55,-204.06 315,-180 289.4,-137.66 302.22,-101.41 342,-72 409.05,-22.43 1009.26,-18.97 1167.76,-18.93"/>
<polygon fill="black" stroke="black" points="1167.3,-22.43 1177.3,-18.93 1167.3,-15.43 1167.3,-22.43"/>
</g>
<!-- fsm_core&#45;&gt;bit -->
<g id="edge61" class="edge">
<title>fsm_core&#45;&gt;bit</title>
<path fill="none" stroke="black" d="M449.66,-226.17C496.36,-216.56 583.39,-198.19 657,-180 761.01,-154.3 882.54,-119.66 942.92,-102.15"/>
<polygon fill="black" stroke="black" points="943.74,-105.55 952.36,-99.4 941.78,-98.83 943.74,-105.55"/>
</g>
<!-- fsm_core&#45;&gt;network -->
<g id="edge59" class="edge">
<title>fsm_core&#45;&gt;network</title>
<path fill="none" stroke="black" d="M382.02,-222.83C361.57,-214.77 337.21,-201.24 325,-180 317.03,-166.13 317.83,-158.3 325,-144 331.81,-130.41 343.94,-119.42 356.27,-111.04"/>
<polygon fill="black" stroke="black" points="357.77,-114.23 364.37,-105.95 354.05,-108.31 357.77,-114.23"/>
</g>
<!-- fsm_core&#45;&gt;config_net -->
<g id="edge63" class="edge">
<title>fsm_core&#45;&gt;config_net</title>
<path fill="none" stroke="black" d="M426.01,-215.78C436.88,-197.48 455.09,-167.95 473,-144 479.93,-134.73 488.05,-125.04 495.53,-116.52"/>
<polygon fill="black" stroke="black" points="497.96,-119.06 502,-109.26 492.73,-114.4 497.96,-119.06"/>
</g>
<!-- sequence_headless -->
<g id="node30" class="node">
<title>sequence_headless</title>
<polygon fill="lightgray" stroke="black" points="289,-324 171,-324 171,-288 289,-288 289,-324"/>
<text xml:space="preserve" text-anchor="middle" x="230" y="-300.95" font-family="Times,serif" font-size="14.00">sequence_headless</text>
</g>
<!-- sequence_headless&#45;&gt;ffi -->
<g id="edge66" class="edge">
<title>sequence_headless&#45;&gt;ffi</title>
<path fill="none" stroke="black" d="M228.26,-287.75C224.89,-243.68 222.88,-126.6 289,-72 357.53,-15.41 1002.04,-17.19 1167.46,-18.59"/>
<polygon fill="black" stroke="black" points="1167.42,-22.09 1177.45,-18.68 1167.48,-15.09 1167.42,-22.09"/>
</g>
<!-- sequence_headless&#45;&gt;network -->
<g id="edge65" class="edge">
<title>sequence_headless&#45;&gt;network</title>
<path fill="none" stroke="black" d="M235.8,-287.77C247.04,-256.29 274.36,-188.64 315,-144 326.58,-131.28 341.86,-120.26 356.01,-111.61"/>
<polygon fill="black" stroke="black" points="357.41,-114.85 364.27,-106.77 353.87,-108.8 357.41,-114.85"/>
</g>
<!-- sequence_headless&#45;&gt;memory -->
<g id="edge64" class="edge">
<title>sequence_headless&#45;&gt;memory</title>
<path fill="none" stroke="black" d="M289.12,-305.28C391.6,-304.52 608.53,-297.39 797.56,-251.84"/>
<polygon fill="black" stroke="black" points="798.19,-255.29 807.06,-249.51 796.52,-248.49 798.19,-255.29"/>
</g>
<!-- registry_export -->
<g id="node31" class="node">
<title>registry_export</title>
<polygon fill="lightgray" stroke="black" points="790.25,-252 691.75,-252 691.75,-216 790.25,-216 790.25,-252"/>
<text xml:space="preserve" text-anchor="middle" x="741" y="-228.95" font-family="Times,serif" font-size="14.00">registry_export</text>
</g>
<!-- registry_export&#45;&gt;config_sim -->
<g id="edge69" class="edge">
<title>registry_export&#45;&gt;config_sim</title>
<path fill="none" stroke="black" d="M734.62,-215.59C725.77,-191.4 709.64,-147.36 699.13,-118.65"/>
<polygon fill="black" stroke="black" points="702.51,-117.72 695.79,-109.53 695.94,-120.13 702.51,-117.72"/>
</g>
<!-- registry_export&#45;&gt;registry_vk -->
<g id="edge70" class="edge">
<title>registry_export&#45;&gt;registry_vk</title>
<path fill="none" stroke="black" d="M790.73,-217.95C793.85,-217.23 796.96,-216.57 800,-216 852.05,-206.24 1203.73,-177.61 1336.44,-167.01"/>
<polygon fill="black" stroke="black" points="1336.65,-170.5 1346.34,-166.22 1336.09,-163.53 1336.65,-170.5"/>
</g>
<!-- registry_export&#45;&gt;config_gfx -->
<g id="edge68" class="edge">
<title>registry_export&#45;&gt;config_gfx</title>
<path fill="none" stroke="black" d="M790.47,-218.33C793.69,-217.5 796.88,-216.72 800,-216 888.43,-195.56 993.04,-178.84 1053.04,-169.95"/>
<polygon fill="black" stroke="black" points="1053.19,-173.46 1062.58,-168.55 1052.17,-166.54 1053.19,-173.46"/>
</g>
<!-- registry_export&#45;&gt;structs -->
<g id="edge67" class="edge">
<title>registry_export&#45;&gt;structs</title>
<path fill="none" stroke="black" d="M691.36,-224.85C631.6,-214.9 528.27,-197.26 440,-180 426.69,-177.4 412.16,-174.34 399.24,-171.53"/>
<polygon fill="black" stroke="black" points="400.36,-168.2 389.85,-169.48 398.87,-175.03 400.36,-168.2"/>
</g>
<!-- render_queue -->
<g id="node32" class="node">
<title>render_queue</title>
<polygon fill="lightgray" stroke="black" points="1016.75,-252 927.25,-252 927.25,-216 1016.75,-216 1016.75,-252"/>
<text xml:space="preserve" text-anchor="middle" x="972" y="-228.95" font-family="Times,serif" font-size="14.00">render_queue</text>
</g>
<!-- render_queue&#45;&gt;ffi -->
<g id="edge74" class="edge">
<title>render_queue&#45;&gt;ffi</title>
<path fill="none" stroke="black" d="M986.98,-215.65C1003.14,-197.24 1029.94,-167.62 1055,-144 1094.44,-106.82 1143.26,-67.52 1174.51,-43.13"/>
<polygon fill="black" stroke="black" points="1176.29,-46.18 1182.04,-37.28 1171.99,-40.65 1176.29,-46.18"/>
</g>
<!-- render_queue&#45;&gt;bit -->
<g id="edge77" class="edge">
<title>render_queue&#45;&gt;bit</title>
<path fill="none" stroke="black" d="M973.1,-215.59C974.62,-191.61 977.38,-148.14 979.2,-119.42"/>
<polygon fill="black" stroke="black" points="982.68,-119.82 979.82,-109.62 975.69,-119.38 982.68,-119.82"/>
</g>
<!-- render_queue&#45;&gt;fixed_math -->
<g id="edge78" class="edge">
<title>render_queue&#45;&gt;fixed_math</title>
<path fill="none" stroke="black" d="M969.82,-215.73C966.57,-196.29 958.8,-164.73 941,-144 927.63,-128.42 908.51,-116.73 890.57,-108.35"/>
<polygon fill="black" stroke="black" points="892.14,-105.22 881.58,-104.4 889.33,-111.62 892.14,-105.22"/>
</g>
<!-- render_queue&#45;&gt;pipeline_manifest -->
<g id="edge76" class="edge">
<title>render_queue&#45;&gt;pipeline_manifest</title>
<path fill="none" stroke="black" d="M948.02,-215.7C936.01,-207.03 921.28,-196.4 908.21,-186.96"/>
<polygon fill="black" stroke="black" points="910.42,-184.25 900.27,-181.23 906.33,-189.92 910.42,-184.25"/>
</g>
<!-- render_queue&#45;&gt;config_gfx -->
<g id="edge75" class="edge">
<title>render_queue&#45;&gt;config_gfx</title>
<path fill="none" stroke="black" d="M1004.47,-215.52C1021.27,-206.47 1041.98,-195.32 1059.98,-185.62"/>
<polygon fill="black" stroke="black" points="1061.47,-188.8 1068.61,-180.98 1058.15,-182.64 1061.47,-188.8"/>
</g>
</g>
</svg>
